<svg width="24" height="22" viewBox="0 0 24 22" fill="none" xmlns="http://www.w3.org/2000/svg"><path d="M22.1072 13.4984L17.4282 11.1589L14.3106 2.42784C13.9625 1.4544 13.0346 0.799988 12 0.799988C10.9655 0.799988 10.0377 1.4544 9.68948 2.42832L6.57186 11.1589L1.89288 13.4984C1.21843 13.8357 0.800049 14.5129 0.800049 15.2667C0.800049 16.0195 1.21843 16.6972 1.89288 17.0349L9.13897 20.658C10.0231 21.0996 11.012 21.3334 12 21.3334C12.9881 21.3334 13.977 21.0996 14.8611 20.658L22.1072 17.0349C22.7817 16.6972 23.2 16.0195 23.2 15.2667C23.2 14.5129 22.7817 13.8357 22.1072 13.4984ZM9.41609 5.96979C10.1252 6.25233 11.0066 6.39999 12.0001 6.39999C12.9936 6.39999 13.875 6.25233 14.5841 5.96979L15.4217 8.31318C14.7436 8.86508 13.4712 9.20003 12.0001 9.20003C10.529 9.20003 9.25666 8.86508 8.57854 8.31318L9.41609 5.96979ZM12 16.6667C9.75602 16.6667 6.51305 15.7885 6.40276 14.4062L7.00708 12.7155C8.14187 13.4529 9.91191 13.8667 12 13.8667C14.0882 13.8667 15.8583 13.4529 16.993 12.7155L17.5973 14.4062C17.487 15.7885 14.2441 16.6667 12 16.6667Z" fill="white"/></svg>